<mxfile host="app.diagrams.net" modified="2023-09-04T17:09:33.161Z" agent="Mozilla/5.0 (Windows NT 10.0; Win64; x64) AppleWebKit/537.36 (KHTML, like Gecko) Chrome/110.0.0.0 Safari/537.36" etag="ZD_7BnT9oUpn1NVL9mxc" version="21.7.2" type="google">
  <diagram name="Página-1" id="ilVeC-3rGVXRSnefU3KA">
    <mxGraphModel grid="1" page="1" gridSize="10" guides="1" tooltips="1" connect="1" arrows="1" fold="1" pageScale="1" pageWidth="827" pageHeight="1169" math="0" shadow="0">
      <root>
        <mxCell id="0" />
        <mxCell id="1" parent="0" />
        <mxCell id="mySGYRKJWSH8It1Eu89Y-23" style="edgeStyle=orthogonalEdgeStyle;rounded=0;orthogonalLoop=1;jettySize=auto;html=1;endArrow=none;endFill=0;" edge="1" parent="1" source="mySGYRKJWSH8It1Eu89Y-1">
          <mxGeometry relative="1" as="geometry">
            <mxPoint x="110" y="270" as="targetPoint" />
          </mxGeometry>
        </mxCell>
        <mxCell id="mySGYRKJWSH8It1Eu89Y-1" value="User" style="shape=umlActor;verticalLabelPosition=bottom;verticalAlign=top;html=1;outlineConnect=0;" vertex="1" parent="1">
          <mxGeometry x="10" y="240" width="30" height="60" as="geometry" />
        </mxCell>
        <mxCell id="mySGYRKJWSH8It1Eu89Y-2" value="DB" style="shape=umlActor;verticalLabelPosition=bottom;verticalAlign=top;html=1;outlineConnect=0;" vertex="1" parent="1">
          <mxGeometry x="770" y="240" width="30" height="60" as="geometry" />
        </mxCell>
        <mxCell id="mySGYRKJWSH8It1Eu89Y-14" style="edgeStyle=orthogonalEdgeStyle;rounded=0;orthogonalLoop=1;jettySize=auto;html=1;" edge="1" parent="1" source="mySGYRKJWSH8It1Eu89Y-3" target="mySGYRKJWSH8It1Eu89Y-5">
          <mxGeometry relative="1" as="geometry" />
        </mxCell>
        <mxCell id="mySGYRKJWSH8It1Eu89Y-19" style="edgeStyle=orthogonalEdgeStyle;rounded=0;orthogonalLoop=1;jettySize=auto;html=1;entryX=0;entryY=0.5;entryDx=0;entryDy=0;" edge="1" parent="1" source="mySGYRKJWSH8It1Eu89Y-3" target="mySGYRKJWSH8It1Eu89Y-8">
          <mxGeometry relative="1" as="geometry" />
        </mxCell>
        <mxCell id="mySGYRKJWSH8It1Eu89Y-3" value="Log in" style="ellipse;whiteSpace=wrap;html=1;aspect=fixed;" vertex="1" parent="1">
          <mxGeometry x="120" y="240" width="70" height="70" as="geometry" />
        </mxCell>
        <mxCell id="mySGYRKJWSH8It1Eu89Y-4" value="Crear&lt;br&gt;usuario" style="ellipse;whiteSpace=wrap;html=1;aspect=fixed;" vertex="1" parent="1">
          <mxGeometry x="120" y="40" width="70" height="70" as="geometry" />
        </mxCell>
        <mxCell id="mySGYRKJWSH8It1Eu89Y-5" value="Mostrar&lt;br&gt;opciones&lt;br&gt;de voto" style="ellipse;whiteSpace=wrap;html=1;aspect=fixed;" vertex="1" parent="1">
          <mxGeometry x="320" y="240" width="70" height="70" as="geometry" />
        </mxCell>
        <mxCell id="mySGYRKJWSH8It1Eu89Y-20" style="edgeStyle=orthogonalEdgeStyle;rounded=0;orthogonalLoop=1;jettySize=auto;html=1;endArrow=none;endFill=0;" edge="1" parent="1" source="mySGYRKJWSH8It1Eu89Y-6">
          <mxGeometry relative="1" as="geometry">
            <mxPoint x="780" y="220" as="targetPoint" />
          </mxGeometry>
        </mxCell>
        <mxCell id="mySGYRKJWSH8It1Eu89Y-6" value="Cifrar&amp;nbsp;&lt;br&gt;datos" style="ellipse;whiteSpace=wrap;html=1;aspect=fixed;" vertex="1" parent="1">
          <mxGeometry x="560" y="40" width="70" height="70" as="geometry" />
        </mxCell>
        <mxCell id="mySGYRKJWSH8It1Eu89Y-21" style="edgeStyle=orthogonalEdgeStyle;rounded=0;orthogonalLoop=1;jettySize=auto;html=1;endArrow=none;endFill=0;" edge="1" parent="1" source="mySGYRKJWSH8It1Eu89Y-7">
          <mxGeometry relative="1" as="geometry">
            <mxPoint x="760" y="275" as="targetPoint" />
          </mxGeometry>
        </mxCell>
        <mxCell id="mySGYRKJWSH8It1Eu89Y-7" value="Elegir&amp;nbsp;&lt;br&gt;voto" style="ellipse;whiteSpace=wrap;html=1;aspect=fixed;" vertex="1" parent="1">
          <mxGeometry x="480" y="240" width="70" height="70" as="geometry" />
        </mxCell>
        <mxCell id="mySGYRKJWSH8It1Eu89Y-22" style="edgeStyle=orthogonalEdgeStyle;rounded=0;orthogonalLoop=1;jettySize=auto;html=1;endArrow=none;endFill=0;" edge="1" parent="1" source="mySGYRKJWSH8It1Eu89Y-8">
          <mxGeometry relative="1" as="geometry">
            <mxPoint x="780" y="330" as="targetPoint" />
          </mxGeometry>
        </mxCell>
        <mxCell id="mySGYRKJWSH8It1Eu89Y-8" value="Mostrar&lt;br&gt;estadísticas" style="ellipse;whiteSpace=wrap;html=1;aspect=fixed;" vertex="1" parent="1">
          <mxGeometry x="320" y="480" width="70" height="70" as="geometry" />
        </mxCell>
        <mxCell id="mySGYRKJWSH8It1Eu89Y-9" value="Comprobar&lt;br&gt;mail" style="ellipse;whiteSpace=wrap;html=1;aspect=fixed;" vertex="1" parent="1">
          <mxGeometry x="250" y="40" width="70" height="70" as="geometry" />
        </mxCell>
        <mxCell id="mySGYRKJWSH8It1Eu89Y-10" value="Comprobar código&lt;br&gt;de acceso" style="ellipse;whiteSpace=wrap;html=1;aspect=fixed;" vertex="1" parent="1">
          <mxGeometry x="400" y="40" width="70" height="70" as="geometry" />
        </mxCell>
        <mxCell id="mySGYRKJWSH8It1Eu89Y-12" value="Include" style="endArrow=block;endSize=16;endFill=0;html=1;rounded=0;exitX=0.5;exitY=0;exitDx=0;exitDy=0;entryX=0.5;entryY=1;entryDx=0;entryDy=0;" edge="1" parent="1" source="mySGYRKJWSH8It1Eu89Y-3" target="mySGYRKJWSH8It1Eu89Y-4">
          <mxGeometry width="160" relative="1" as="geometry">
            <mxPoint x="140" y="220" as="sourcePoint" />
            <mxPoint x="300" y="220" as="targetPoint" />
            <mxPoint as="offset" />
          </mxGeometry>
        </mxCell>
        <mxCell id="mySGYRKJWSH8It1Eu89Y-15" value="Use" style="endArrow=open;endSize=12;dashed=1;html=1;rounded=0;exitX=1;exitY=0.5;exitDx=0;exitDy=0;" edge="1" parent="1" source="mySGYRKJWSH8It1Eu89Y-4" target="mySGYRKJWSH8It1Eu89Y-9">
          <mxGeometry width="160" relative="1" as="geometry">
            <mxPoint x="205" y="150" as="sourcePoint" />
            <mxPoint x="365" y="150" as="targetPoint" />
          </mxGeometry>
        </mxCell>
        <mxCell id="mySGYRKJWSH8It1Eu89Y-16" value="Use" style="endArrow=open;endSize=12;dashed=1;html=1;rounded=0;exitX=1;exitY=0.5;exitDx=0;exitDy=0;entryX=0;entryY=0.5;entryDx=0;entryDy=0;" edge="1" parent="1" source="mySGYRKJWSH8It1Eu89Y-9" target="mySGYRKJWSH8It1Eu89Y-10">
          <mxGeometry width="160" relative="1" as="geometry">
            <mxPoint x="215" y="160" as="sourcePoint" />
            <mxPoint x="375" y="160" as="targetPoint" />
          </mxGeometry>
        </mxCell>
        <mxCell id="mySGYRKJWSH8It1Eu89Y-17" value="Use" style="endArrow=open;endSize=12;dashed=1;html=1;rounded=0;exitX=1;exitY=0.5;exitDx=0;exitDy=0;entryX=0;entryY=0.5;entryDx=0;entryDy=0;" edge="1" parent="1" source="mySGYRKJWSH8It1Eu89Y-10" target="mySGYRKJWSH8It1Eu89Y-6">
          <mxGeometry width="160" relative="1" as="geometry">
            <mxPoint x="414" y="130" as="sourcePoint" />
            <mxPoint x="574" y="130" as="targetPoint" />
          </mxGeometry>
        </mxCell>
        <mxCell id="mySGYRKJWSH8It1Eu89Y-18" value="Use" style="endArrow=open;endSize=12;dashed=1;html=1;rounded=0;exitX=1;exitY=0.5;exitDx=0;exitDy=0;entryX=0;entryY=0.5;entryDx=0;entryDy=0;" edge="1" parent="1" source="mySGYRKJWSH8It1Eu89Y-5" target="mySGYRKJWSH8It1Eu89Y-7">
          <mxGeometry width="160" relative="1" as="geometry">
            <mxPoint x="235" y="180" as="sourcePoint" />
            <mxPoint x="395" y="180" as="targetPoint" />
          </mxGeometry>
        </mxCell>
        <mxCell id="mySGYRKJWSH8It1Eu89Y-24" value="" style="rounded=0;whiteSpace=wrap;html=1;fillColor=none;dashed=1;" vertex="1" parent="1">
          <mxGeometry x="50" y="20" width="700" height="550" as="geometry" />
        </mxCell>
      </root>
    </mxGraphModel>
  </diagram>
</mxfile>
